<svg width="34" height="34" viewBox="0 0 34 34" fill="none" xmlns="http://www.w3.org/2000/svg">
<path d="M16.5357 22.8071C13.3125 22.8071 10.6996 20.1942 10.6996 16.971C10.6996 13.7478 13.3125 11.1348 16.5357 11.1348C19.7589 11.1348 22.3719 13.7478 22.3719 16.971C22.3719 20.1942 19.7589 22.8071 16.5357 22.8071Z" fill="#AE9AFF"/>
<path d="M31.0132 18.4227C31.0877 17.8389 31.126 17.2442 31.126 16.6407C31.126 8.76508 24.5938 2.38062 16.5357 2.38062C8.47769 2.38062 1.94537 8.76508 1.94537 16.6407C1.94537 17.4152 2.00855 18.1753 2.13015 18.9163C2.80031 18.0197 3.84626 17.3796 4.97604 17.1849C6.19841 16.9742 7.30935 17.264 8.24866 17.8056C8.19317 17.4251 8.16446 17.0362 8.16446 16.6407C8.16446 12.1221 11.9124 8.45893 16.5357 8.45893C21.159 8.45893 24.907 12.1221 24.907 16.6407C24.907 16.9386 24.8906 17.2329 24.8589 17.5225C25.7784 16.949 26.8785 16.6213 28.1079 16.7902C29.2436 16.9463 30.3114 17.5499 31.0132 18.4227Z" fill="#5429FF"/>
</svg>
